<svg width="24" height="24" viewBox="0 0 24 24" fill="none" xmlns="http://www.w3.org/2000/svg">
<g clip-path="url(#clip0)">
<path fill-rule="evenodd" clip-rule="evenodd" d="M0.187623 16.755C0.257905 16.675 0.344418 16.6109 0.441406 16.5669C0.538395 16.5229 0.643634 16.5001 0.750123 16.5H9.00012C9.19903 16.5 9.3898 16.579 9.53045 16.7197C9.6711 16.8603 9.75012 17.0511 9.75012 17.25C9.75012 17.8467 9.98717 18.419 10.4091 18.841C10.8311 19.2629 11.4034 19.5 12.0001 19.5C12.5969 19.5 13.1692 19.2629 13.5911 18.841C14.0131 18.419 14.2501 17.8467 14.2501 17.25C14.2501 17.0511 14.3291 16.8603 14.4698 16.7197C14.6104 16.579 14.8012 16.5 15.0001 16.5H23.2501C23.3564 16.5 23.4616 16.5227 23.5585 16.5664C23.6554 16.6102 23.7419 16.674 23.8122 16.7537C23.8826 16.8334 23.9352 16.9272 23.9665 17.0288C23.9979 17.1304 24.0073 17.2375 23.9941 17.343L23.4091 22.029C23.3411 22.5733 23.0766 23.0741 22.6652 23.437C22.2539 23.8 21.7242 24.0002 21.1756 24H2.82462C2.27606 24.0002 1.74631 23.8 1.335 23.437C0.923684 23.0741 0.659145 22.5733 0.591123 22.029L0.00612254 17.343C-0.00714604 17.2375 0.00217486 17.1304 0.0334668 17.0287C0.0647587 16.9271 0.117306 16.8333 0.187623 16.7535V16.755ZM5.71512 0.8445C5.9257 0.581255 6.19274 0.368692 6.49651 0.22252C6.80028 0.076347 7.13301 0.000300644 7.47012 0L16.5301 0C16.8672 0.000300644 17.2 0.076347 17.5037 0.22252C17.8075 0.368692 18.0745 0.581255 18.2851 0.8445L23.8351 7.782C23.9483 7.93806 23.9971 8.13171 23.9713 8.32276C23.9455 8.51382 23.8471 8.6876 23.6965 8.80803C23.546 8.92847 23.3549 8.98631 23.1628 8.96954C22.9708 8.95278 22.7925 8.8627 22.6651 8.718L17.1151 1.782C17.045 1.69416 16.956 1.62321 16.8547 1.5744C16.7535 1.52559 16.6425 1.50016 16.5301 1.5H7.47012C7.35771 1.50016 7.24678 1.52559 7.14552 1.5744C7.04426 1.62321 6.95527 1.69416 6.88512 1.782L1.33512 8.718C1.27554 8.80014 1.19991 8.86933 1.11282 8.92139C1.02572 8.97345 0.928966 9.00729 0.82841 9.02087C0.727853 9.03445 0.625586 9.02749 0.5278 9.0004C0.430013 8.97331 0.33874 8.92666 0.259506 8.86327C0.180272 8.79988 0.114724 8.72108 0.0668299 8.63162C0.018936 8.54217 -0.0103079 8.44392 -0.0191315 8.34284C-0.0279552 8.24175 -0.0161751 8.13993 0.0154956 8.04353C0.0471663 7.94713 0.098069 7.85816 0.165123 7.782L5.71512 0.8445Z" fill="#FD570B"/>
<path fill-rule="evenodd" clip-rule="evenodd" d="M0.187361 7.755C0.257644 7.675 0.344157 7.61088 0.441145 7.56691C0.538133 7.52294 0.643372 7.50013 0.749861 7.5H8.99986C9.19877 7.5 9.38954 7.57902 9.53019 7.71967C9.67084 7.86032 9.74986 8.05109 9.74986 8.25C9.74986 8.84674 9.98691 9.41903 10.4089 9.84099C10.8308 10.2629 11.4031 10.5 11.9999 10.5C12.5966 10.5 13.1689 10.2629 13.5909 9.84099C14.0128 9.41903 14.2499 8.84674 14.2499 8.25C14.2499 8.05109 14.3289 7.86032 14.4695 7.71967C14.6102 7.57902 14.801 7.5 14.9999 7.5H23.2499C23.3562 7.50003 23.4613 7.52267 23.5582 7.56641C23.6551 7.61015 23.7416 7.674 23.812 7.75372C23.8823 7.83344 23.9349 7.9272 23.9663 8.0288C23.9976 8.13039 24.007 8.2375 23.9939 8.343L23.4089 13.029C23.3408 13.5733 23.0763 14.0741 22.665 14.437C22.2537 14.8 21.7239 15.0002 21.1754 15H2.82436C2.27579 15.0002 1.74605 14.8 1.33474 14.437C0.923423 14.0741 0.658883 13.5733 0.590861 13.029L0.00586102 8.343C-0.00740756 8.23749 0.00191334 8.13036 0.0332053 8.02873C0.0644972 7.92709 0.117045 7.83328 0.187361 7.7535V7.755Z" fill="#FD570B"/>
</g>
<defs>
<clipPath id="clip0">
<rect width="24" height="24" fill="white"/>
</clipPath>
</defs>
</svg>
